<?xml version="1.0" encoding="utf-8"?>
<!-- Generator: Adobe Illustrator 22.0.0, SVG Export Plug-In . SVG Version: 6.00 Build 0)  -->
<svg version="1.1" id="Capa_1" xmlns="http://www.w3.org/2000/svg" xmlns:xlink="http://www.w3.org/1999/xlink" x="0px" y="0px"
	 viewBox="0 0 512 512" style="enable-background:new 0 0 512 512;" xml:space="preserve">
<style type="text/css">
	.st0{fill:#A70291;}
</style>
<g>
	<path class="st0" d="M0,417c0,32.1,26.1,58.3,58.3,58.3h12.9h355.5h25.9h27v-25.9h-27v-64.7h27v-11.3h12.9H512v-25.9h-19.4v-64.7
		H512v-25.9h-19.4H491v-8.6v-12.9v-0.6l-32-59.9h33.6V140L408.1,36.7H110L33.1,157.8c-13.1,10.7-21.7,26.8-21.7,45
		c0,31.9,25.8,57.9,57.7,58.2c-21.4,8.6-36.7,29.5-36.7,54c0,17.8,8.2,33.5,20.8,44.2C23.4,361.9,0,386.7,0,417z M37.2,202.9
		c0-12.1,6.7-22.5,16.5-28.1h385.9v60.4H69.6C51.8,235.2,37.2,220.7,37.2,202.9z M90.6,282.7h12.9h363.1v64.7H103.6H90.6
		c-17.8,0-32.4-14.5-32.4-32.4C58.3,297.2,72.8,282.7,90.6,282.7z M58.3,384.7h12.9h355.5v64.7H71.2H58.3
		c-17.8,0-32.4-14.5-32.4-32.4C25.9,399.2,40.4,384.7,58.3,384.7z"/>
</g>
</svg>
