<?xml version="1.0" encoding="utf-8"?>
<!-- Generator: Adobe Illustrator 22.0.0, SVG Export Plug-In . SVG Version: 6.00 Build 0)  -->
<svg version="1.1" id="Capa_1" xmlns="http://www.w3.org/2000/svg" xmlns:xlink="http://www.w3.org/1999/xlink" x="0px" y="0px"
	 viewBox="0 0 512 512" style="enable-background:new 0 0 512 512;" xml:space="preserve">
<style type="text/css">
	.st0{fill:#99248D;}
</style>
<g id="_x37_7_Essential_Icons_20_">
	<path id="Down_Arrow" class="st0" d="M376.6,222.3L262.7,336.2c-2.7,2.7-6.1,4-9.4,4s-6.7-1.3-9.4-4L135.4,227.7
		c-5.4-5.4-5.4-13.5,0-18.9c5.4-5.4,13.5-5.4,18.9,0l99,99l104.4-104.4c5.4-5.4,13.5-5.4,18.9,0C382,208.2,382,216.9,376.6,222.3z
		 M512,256c0,141.5-114.5,256-256,256S0,397.5,0,256S114.5,0,256,0S512,114.5,512,256z M485.1,256c0-126.7-102.4-229.1-229.1-229.1
		S26.9,129.3,26.9,256S129.3,485.1,256,485.1S485.1,382.7,485.1,256z"/>
</g>
</svg>
