<?xml version="1.0" encoding="utf-8"?>
<!-- Generator: Adobe Illustrator 22.0.0, SVG Export Plug-In . SVG Version: 6.00 Build 0)  -->
<svg version="1.1" id="Capa_1" xmlns="http://www.w3.org/2000/svg" xmlns:xlink="http://www.w3.org/1999/xlink" x="0px" y="0px"
	 viewBox="0 0 512 512" style="enable-background:new 0 0 512 512;" xml:space="preserve">
<style type="text/css">
	.st0{fill:#A70291;}
</style>
<g>
	<g>
		<path class="st0" d="M504.2,118.9c-8.2-23.3-22.5-44.3-41.5-60.8c-19-16.5-41.8-27.7-66.1-32.5c-9.1-1.8-18.5-2.7-27.9-2.7
			c-27.4,0-54,7.7-77,22.4c-13.8,8.8-26,19.9-36,32.7c-10-12.8-22.2-23.8-36-32.6c-23-14.6-49.6-22.4-76.9-22.4c0,0,0,0,0,0
			c-22.8,0-45.7,5.6-66.1,16.3C56.2,49.9,38.4,65.4,25.3,84C11.9,103.2,3.7,124.6,1,147.6c-2.4,20.2-0.5,41.9,5.4,64.5
			c11.8,44.8,38.1,85.6,58,111.9c43.3,57.3,102.8,109.4,181.9,159.1l9.5,5.9l9.5-5.9c97.3-61.1,165.3-125.7,207.7-197.4
			c24.4-41.2,37.1-77.9,38.9-112.2C512.8,154.4,510.2,136,504.2,118.9z M255.8,447.1c-70.7-45.5-124.1-92.8-163-144.4
			c-18-23.8-41.6-60.4-52-99.6c-4.8-18.3-6.3-35.5-4.5-51.3c2-17.2,8.1-33.1,18.1-47.3c9.9-14,23.2-25.7,38.6-33.7
			c15.4-8,32.6-12.3,49.8-12.3c20.6,0,40.6,5.8,57.9,16.8C217.5,86,231,101.2,239.8,119l16,32.6l15.9-32.6
			c8.8-17.9,22.3-33,39.1-43.8c17.3-11,37.3-16.8,57.9-16.8c7.1,0,14.2,0.7,21,2c18.2,3.6,35.3,12,49.7,24.5
			c14.3,12.4,25.1,28.2,31.3,45.7c4.5,12.7,6.4,26.6,5.6,41.1c-1.4,28.4-12.6,59.8-33.9,95.9C404.2,332.1,343.1,390.8,255.8,447.1z"
			/>
	</g>
</g>
</svg>
