<?xml version="1.0" encoding="utf-8"?>
<!-- Generator: Adobe Illustrator 22.0.0, SVG Export Plug-In . SVG Version: 6.00 Build 0)  -->
<svg version="1.1" id="Layer_1" xmlns="http://www.w3.org/2000/svg" xmlns:xlink="http://www.w3.org/1999/xlink" x="0px" y="0px"
	 viewBox="0 0 512 512" style="enable-background:new 0 0 512 512;" xml:space="preserve">
<style type="text/css">
	.st0{fill:#A70291;}
</style>
<g>
	<g>
		<path class="st0" d="M256,0C114.6,0,0,114.6,0,256c0,141.4,114.6,256,256,256s256-114.6,256-256C512,114.6,397.4,0,256,0z
			 M256.8,376.8L256.8,376.8l-1.6,0H145.9c0-80,70.2-79.9,85.8-100.9l1.8-9.5c-21.9-11.1-37.4-37.9-37.4-69.1
			c0-41.2,26.8-74.6,59.9-74.6s59.9,33.4,59.9,74.6c0,31-15.2,57.6-36.8,68.9l2,10.8c17.1,19.9,85,21.2,85,99.8H256.8z"/>
	</g>
</g>
</svg>
